<svg width="24" height="24" viewBox="0 0 24 24" fill="none" xmlns="http://www.w3.org/2000/svg">
<path d="M18.9419 5.33997C17.6279 4.70497 16.2407 4.25448 14.8158 4C14.6208 4.36793 14.4443 4.74649 14.2872 5.13408C12.7694 4.89266 11.2258 4.89266 9.70801 5.13408C9.55079 4.74653 9.37437 4.36798 9.17946 4C7.75361 4.25662 6.3655 4.70819 5.05016 5.3433C2.43887 9.42134 1.73099 13.3981 2.08493 17.3184C3.61417 18.511 5.32582 19.418 7.14548 20C7.55522 19.4183 7.91778 18.8012 8.22933 18.1553C7.63759 17.922 7.06646 17.6342 6.52255 17.2951C6.6657 17.1856 6.8057 17.0726 6.94098 16.9631C8.52364 17.7487 10.251 18.156 12 18.156C13.7489 18.156 15.4763 17.7487 17.0589 16.9631C17.1958 17.0809 17.3358 17.1939 17.4774 17.2951C16.9324 17.6347 16.3602 17.9231 15.7675 18.1569C16.0786 18.8026 16.4412 19.4192 16.8513 20C18.6725 19.4204 20.3855 18.5138 21.915 17.32C22.3303 12.7738 21.2055 8.83354 18.9419 5.33997ZM8.67765 14.9074C7.69134 14.9074 6.87649 13.9626 6.87649 12.8003C6.87649 11.638 7.66302 10.6849 8.6745 10.6849C9.68598 10.6849 10.4945 11.638 10.4772 12.8003C10.4599 13.9626 9.68284 14.9074 8.67765 14.9074ZM15.3223 14.9074C14.3344 14.9074 13.5227 13.9626 13.5227 12.8003C13.5227 11.638 14.3092 10.6849 15.3223 10.6849C16.3353 10.6849 17.1376 11.638 17.1203 12.8003C17.103 13.9626 16.3275 14.9074 15.3223 14.9074Z" fill="white"/>
</svg>
