<svg width="36" height="36" viewBox="0 0 36 36" fill="none" xmlns="http://www.w3.org/2000/svg">
<path d="M22.7704 8.71909C22.8832 8.45291 23.1443 8.28 23.4333 8.28H26.6289C27.1456 8.28 27.4941 8.80808 27.2909 9.28314L22.4712 20.5518C22.3578 20.8168 22.0974 20.9886 21.8092 20.9886H20.5077C20.2169 20.9886 19.9548 20.8138 19.843 20.5454L18.9263 18.3441C18.8519 18.1655 18.8525 17.9645 18.928 17.7864L22.7704 8.71909Z" fill="#51AFEF"/>
<path fill-rule="evenodd" clip-rule="evenodd" d="M12.218 8.31756C12.5106 8.31536 12.7754 8.49046 12.888 8.76054L18.7439 22.8095C18.8557 23.0777 19.1178 23.2524 19.4085 23.2524H20.3736C20.8806 23.2524 21.2288 23.7626 21.0441 24.2348L19.8595 27.2623C19.7515 27.5384 19.4854 27.72 19.189 27.72H16.5372C16.2473 27.72 15.9857 27.5462 15.8734 27.2789L8.33631 9.34071C8.1378 8.86836 8.48232 8.34567 8.99467 8.34182L12.218 8.31756Z" fill="white"/>
</svg>
