<svg width="24" height="24" viewBox="0 0 24 24" fill="none" xmlns="http://www.w3.org/2000/svg">
<path fill-rule="evenodd" clip-rule="evenodd" d="M12 2C17.523 2 22 6.477 22 12C22 16.2753 19.3173 19.9238 15.5434 21.3541C14.9391 21.5831 14.333 21.1056 14.333 20.4593V17.137C14.358 16.827 14.315 16.517 14.207 16.224C14.0983 15.9308 13.9277 15.6645 13.707 15.443C15.8 15.216 18 14.443 18 10.899C18 9.993 17.642 9.121 17 8.465C17.3041 7.67311 17.2826 6.79304 16.94 6.017C16.94 6.017 16.153 5.79 14.333 6.978C12.8038 6.57486 11.1962 6.57486 9.667 6.978C7.847 5.79 7.06 6.018 7.06 6.018C6.71797 6.79346 6.69641 7.6727 7 8.464C6.35651 9.11799 5.99714 9.99952 6 10.917C6 14.436 8.2 15.208 10.293 15.461C10.0746 15.6805 9.90556 15.944 9.797 16.234C9.68922 16.5218 9.64488 16.8295 9.667 17.136V18L6.41271 16.1531C5.54876 15.6627 4.74429 16.5083 5.46015 17.1971C6.52537 18.2219 7.91828 19 9.667 19V20.4593C9.667 21.1056 9.06093 21.5831 8.4566 21.3541C4.68269 19.9238 2 16.2753 2 12C2 6.477 6.477 2 12 2Z" fill="white"/>
</svg>
