<svg width="24" height="24" viewBox="0 0 24 24" fill="none" xmlns="http://www.w3.org/2000/svg">
<path fill-rule="evenodd" clip-rule="evenodd" d="M7.29302 7.29302C7.68354 6.90249 8.3167 6.90249 8.70723 7.29302L12 10.5858L15.2928 7.29302C15.6833 6.90249 16.3165 6.90249 16.707 7.29302C17.0975 7.68354 17.0975 8.3167 16.707 8.70723L13.4142 12L16.7072 15.293C17.0978 15.6835 17.0978 16.3167 16.7072 16.7072C16.3167 17.0978 15.6835 17.0978 15.293 16.7072L12 13.4142L8.70723 16.707C8.3167 17.0975 7.68354 17.0975 7.29302 16.707C6.90249 16.3165 6.90249 15.6833 7.29302 15.2928L10.5858 12L7.29302 8.70723C6.90249 8.3167 6.90249 7.68354 7.29302 7.29302Z" fill="white"/>
</svg>
