<svg width="24" height="24" viewBox="0 0 24 24" fill="none" xmlns="http://www.w3.org/2000/svg">
<path fill-rule="evenodd" clip-rule="evenodd" d="M6 16.5V18H18V13.8028L17.023 12.3373C16.6035 11.7081 15.6644 11.7542 15.3086 12.4214L14.2051 14.4904C13.2378 16.3041 10.7492 16.5773 9.41147 15.0166C9.09591 14.6485 8.54877 14.5884 8.16085 14.8794L6 16.5ZM18 10.4941C16.5954 9.42826 14.4456 9.78956 13.5439 11.4802L12.4404 13.5493C12.1356 14.1207 11.3515 14.2068 10.93 13.7151C9.92846 12.5466 8.192 12.356 6.96085 13.2794L6 14V6H18V10.4941ZM20 6C20 4.89543 19.1046 4 18 4H6C4.89543 4 4 4.89543 4 6V18C4 19.1046 4.89543 20 6 20H18C19.1046 20 20 19.1046 20 18V6Z" fill="white"/>
</svg>
